<?xml version="1.0" standalone="no"?>
<!DOCTYPE svg PUBLIC "-//W3C//DTD SVG 20010904//EN"
 "http://www.w3.org/TR/2001/REC-SVG-20010904/DTD/svg10.dtd">
<svg version="1.0" xmlns="http://www.w3.org/2000/svg"
 width="512.000000pt" height="512.000000pt" viewBox="0 0 512.000000 512.000000"
 preserveAspectRatio="xMidYMid meet">
<metadata>
Created by potrace 1.14, written by Peter Selinger 2001-2017
</metadata>
<g transform="translate(0.000000,512.000000) scale(0.100000,-0.100000)"
fill="#000000" stroke="none">
<path d="M1295 5033 c-40 -9 -112 -67 -141 -112 l-29 -46 -3 -2290 c-2 -2557
-8 -2354 69 -2433 76 -76 9 -72 1224 -72 1193 1 1150 -1 1281 65 124 63 222
177 277 321 l22 59 0 2170 c0 2096 -1 2171 -19 2207 -10 21 -34 54 -54 73 -71
69 9 65 -1366 64 -683 -1 -1250 -3 -1261 -6z"/>
</g>
</svg>
