<?xml version="1.0" standalone="no"?>
<!DOCTYPE svg PUBLIC "-//W3C//DTD SVG 20010904//EN"
 "http://www.w3.org/TR/2001/REC-SVG-20010904/DTD/svg10.dtd">
<svg version="1.0" xmlns="http://www.w3.org/2000/svg"
 width="512.000000pt" height="512.000000pt" viewBox="0 0 512.000000 512.000000"
 preserveAspectRatio="xMidYMid meet">
<metadata>
Created by potrace 1.14, written by Peter Selinger 2001-2017
</metadata>
<g transform="translate(0.000000,512.000000) scale(0.100000,-0.100000)"
fill="#000000" stroke="none">
<path d="M3837 4693 c-1 0 -16 -3 -34 -6 -45 -7 -90 -42 -113 -87 -19 -37 -20
-60 -20 -400 l0 -360 -896 2 -896 3 -3 66 c-4 81 -23 121 -77 157 l-42 27
-260 0 c-291 -1 -300 -3 -352 -70 -22 -30 -28 -49 -32 -110 l-5 -75 -281 0
c-215 0 -296 -4 -345 -15 -186 -44 -342 -201 -382 -386 -9 -40 -13 -308 -12
-1044 0 -545 2 -1006 6 -1025 11 -68 17 -86 47 -147 69 -141 206 -244 364
-274 42 -8 1190 -11 3329 -9 l177 0 0 425 0 425 263 1 c144 0 273 2 287 3 179
17 339 123 414 275 63 127 60 72 60 1166 -1 550 -3 1014 -7 1030 -43 226 -222
398 -438 421 -53 6 -747 12 -752 7z"/>
</g>
</svg>
